<svg width="19" height="19" viewBox="0 0 19 19" fill="none" xmlns="http://www.w3.org/2000/svg">
<g clip-path="url(#clip0_9426_847)">
<path d="M9.50001 7.12501C8.87012 7.12501 8.26603 7.37523 7.82063 7.82063C7.37523 8.26603 7.12501 8.87012 7.12501 9.50001C7.12501 10.1299 7.37523 10.734 7.82063 11.1794C8.26603 11.6248 8.87012 11.875 9.50001 11.875C10.1299 11.875 10.734 11.6248 11.1794 11.1794C11.6248 10.734 11.875 10.1299 11.875 9.50001C11.875 8.87012 11.6248 8.26603 11.1794 7.82063C10.734 7.37523 10.1299 7.12501 9.50001 7.12501ZM9.50001 5.54168C10.5498 5.54168 11.5566 5.95871 12.299 6.70105C13.0413 7.44338 13.4583 8.4502 13.4583 9.50001C13.4583 10.5498 13.0413 11.5566 12.299 12.299C11.5566 13.0413 10.5498 13.4583 9.50001 13.4583C8.4502 13.4583 7.44338 13.0413 6.70105 12.299C5.95871 11.5566 5.54168 10.5498 5.54168 9.50001C5.54168 8.4502 5.95871 7.44338 6.70105 6.70105C7.44338 5.95871 8.4502 5.54168 9.50001 5.54168ZM14.6458 5.34376C14.6458 5.60621 14.5416 5.85792 14.356 6.0435C14.1704 6.22908 13.9187 6.33334 13.6563 6.33334C13.3938 6.33334 13.1421 6.22908 12.9565 6.0435C12.7709 5.85792 12.6667 5.60621 12.6667 5.34376C12.6667 5.08131 12.7709 4.8296 12.9565 4.64402C13.1421 4.45844 13.3938 4.35418 13.6563 4.35418C13.9187 4.35418 14.1704 4.45844 14.356 4.64402C14.5416 4.8296 14.6458 5.08131 14.6458 5.34376ZM9.50001 3.16668C7.54143 3.16668 7.22159 3.17222 6.31039 3.21259C5.68972 3.24189 5.2733 3.32501 4.88697 3.47543C4.54339 3.60843 4.29559 3.76755 4.03197 4.03197C3.78418 4.27137 3.59366 4.56364 3.47464 4.88697C3.32422 5.27489 3.24109 5.69051 3.21259 6.31039C3.17143 7.18439 3.16668 7.48997 3.16668 9.50001C3.16668 11.4586 3.17222 11.7784 3.21259 12.6896C3.24189 13.3095 3.32501 13.7267 3.47464 14.1123C3.60922 14.4566 3.76755 14.7044 4.03039 14.9673C4.29718 15.2333 4.54497 15.3924 4.88539 15.5238C5.27647 15.675 5.69289 15.7589 6.31039 15.7874C7.18439 15.8286 7.48997 15.8333 9.50001 15.8333C11.4586 15.8333 11.7784 15.8278 12.6896 15.7874C13.3087 15.7581 13.7259 15.675 14.1123 15.5254C14.4551 15.3916 14.7044 15.2325 14.9673 14.9696C15.2341 14.7028 15.3932 14.4551 15.5246 14.1146C15.675 13.7243 15.7589 13.3071 15.7874 12.6896C15.8286 11.8156 15.8333 11.5101 15.8333 9.50001C15.8333 7.54143 15.8278 7.22159 15.7874 6.31039C15.7581 5.6913 15.675 5.2733 15.5246 4.88697C15.4053 4.56397 15.2151 4.27181 14.9681 4.03197C14.7288 3.78406 14.4365 3.59352 14.1131 3.47464C13.7251 3.32422 13.3087 3.24109 12.6896 3.21259C11.8156 3.17143 11.5101 3.16668 9.50001 3.16668ZM9.50001 1.58334C11.651 1.58334 11.9193 1.59126 12.7633 1.63084C13.6064 1.67043 14.1803 1.80264 14.6854 1.99897C15.2079 2.20005 15.6481 2.47239 16.0883 2.91176C16.4908 3.30751 16.8023 3.78623 17.0011 4.31459C17.1966 4.81889 17.3296 5.39364 17.3692 6.23676C17.4064 7.08068 17.4167 7.34905 17.4167 9.50001C17.4167 11.651 17.4088 11.9193 17.3692 12.7633C17.3296 13.6064 17.1966 14.1803 17.0011 14.6854C16.8029 15.2141 16.4913 15.6929 16.0883 16.0883C15.6924 16.4907 15.2137 16.8021 14.6854 17.0011C14.1811 17.1966 13.6064 17.3296 12.7633 17.3692C11.9193 17.4064 11.651 17.4167 9.50001 17.4167C7.34905 17.4167 7.08068 17.4088 6.23676 17.3692C5.39364 17.3296 4.81968 17.1966 4.31459 17.0011C3.78602 16.8027 3.30722 16.4912 2.91176 16.0883C2.50912 15.6926 2.19762 15.2138 1.99897 14.6854C1.80264 14.1811 1.67043 13.6064 1.63084 12.7633C1.59364 11.9193 1.58334 11.651 1.58334 9.50001C1.58334 7.34905 1.59126 7.08068 1.63084 6.23676C1.67043 5.39284 1.80264 4.81968 1.99897 4.31459C2.19707 3.7859 2.50865 3.30706 2.91176 2.91176C3.30733 2.50898 3.7861 2.19746 4.31459 1.99897C4.81968 1.80264 5.39284 1.67043 6.23676 1.63084C7.08068 1.59364 7.34905 1.58334 9.50001 1.58334Z" fill="#E0BEA2"/>
</g>
<defs>
<clipPath id="clip0_9426_847">
<rect width="19" height="19" fill="white"/>
</clipPath>
</defs>
</svg>
